<svg xmlns="http://www.w3.org/2000/svg" viewBox="0 0 702.30413 389.55842" height="415.53" width="749.125"><path d="M351.153 14.643l-157.116 112.91L36.922 240.465h190.917l-33.802 24.29L36.922 377.669h628.46L508.268 264.756l-33.801-24.291h190.915L508.268 127.553 351.153 14.643z" class="step-2" fill="red" stroke="#000" stroke-width="23.782"/><path d="M665.382 377.668H36.922l157.115-112.912 157.115-112.91 157.115 112.91z" class="step-1" fill="#0f0" stroke="#000" stroke-width="23.782"/><path d="M665.382 377.668H36.922l157.115-112.912 157.115-112.91 157.115 112.91z" class="step-0" fill="#f0f" stroke="#000" stroke-width="23.782"/><path style="line-height:normal;text-indent:0;text-align:start;text-decoration-line:none;text-decoration-style:solid;text-decoration-color:#000;text-transform:none;block-progression:tb;isolation:auto;mix-blend-mode:normal" d="M397.754 11.804a32.405 40.654 0 0 0-32.406 40.655 32.405 40.654 0 0 0 6.065 23.59l-7.976-1.2S283.812.05 262.65 129.406c-19.834 121.238 66.373 78.051 77.272 72.152l22.376 76.286-53.709 76.726a14.626 14.626 0 1 0 23.963 16.775l57.739-82.486a14.626 14.626 0 0 0 2.052-12.504l-6.018-20.522 15.234 18.338 2.197 69.219a14.626 14.626 0 1 0 29.237-.93l-2.357-74.237a14.626 14.626 0 0 0-3.367-8.88l-45.333-54.566 6.458-38.743.102.555a8.813 8.813 0 0 0 3.274 5.372l36.53 28.28a8.813 8.813 0 1 0 10.788-13.937l-33.867-26.219-7.639-41.466a8.813 8.813 0 0 0-.859-2.565l3.855-23.125a32.405 40.654 0 0 0 29.58-40.47 32.405 40.654 0 0 0-32.404-40.655z" class="step-walk" color="#000" font-weight="400" font-family="sans-serif" white-space="normal" overflow="visible" fill-rule="evenodd"/></svg>